{
  "accessors": [
    {
      "bufferView": 2,
      "componentType": 5126,
      "count": 65532,
      "max": [
        0.11207027733325958,
        0.09267530590295792,
        0.11336115002632141
      ],
      "min": [
        -0.11361712217330933,
        0.016460098326206207,
        -0.10472751408815384
      ],
      "type": "VEC3"
    },
    {
      "bufferView": 2,
      "byteOffset": 786384,
      "componentType": 5126,
      "count": 65532,
      "max": [
        0.9999260306358337,
        0.9999920725822449,
        0.99994957447052
      ],
      "min": [
        -0.9996952414512634,
        -0.9957718849182129,
        -0.9999319911003113
      ],
      "type": "VEC3"
    },
    {
      "bufferView": 1,
      "componentType": 5126,
      "count": 65532,
      "max": [
        0.9977611899375916,
        0.9915260672569275
      ],
      "min": [
        0.002081066370010376,
        0.20668822526931763
      ],
      "type": "VEC2"
    },
    {
      "bufferView": 1,
      "byteOffset": 524256,
      "componentType": 5126,
      "count": 65532,
      "max": [
        0.9977611899375916,
        0.9915260672569275
      ],
      "min": [
        0.002081066370010376,
        0.20668822526931763
      ],
      "type": "VEC2"
    },
    {
      "bufferView": 1,
      "byteOffset": 1048512,
      "componentType": 5126,
      "count": 65532,
      "max": [
        0.9977611899375916,
        0.9915260672569275
      ],
      "min": [
        0.002081066370010376,
        0.20668822526931763
      ],
      "type": "VEC2"
    },
    {
      "bufferView": 1,
      "byteOffset": 1572768,
      "componentType": 5126,
      "count": 65532,
      "max": [
        0.9977611899375916,
        0.9915260672569275
      ],
      "min": [
        0.002081066370010376,
        0.20668822526931763
      ],
      "type": "VEC2"
    },
    {
      "bufferView": 1,
      "byteOffset": 2097024,
      "componentType": 5126,
      "count": 65532,
      "max": [
        0.9977611899375916,
        0.9915260672569275
      ],
      "min": [
        0.002081066370010376,
        0.20668822526931763
      ],
      "type": "VEC2"
    },
    {
      "bufferView": 1,
      "byteOffset": 2621280,
      "componentType": 5126,
      "count": 65532,
      "max": [
        0.9977611899375916,
        0.9915260672569275
      ],
      "min": [
        0.002081066370010376,
        0.20668822526931763
      ],
      "type": "VEC2"
    },
    {
      "bufferView": 1,
      "byteOffset": 3145536,
      "componentType": 5126,
      "count": 65532,
      "max": [
        0.9977611899375916,
        0.9915260672569275
      ],
      "min": [
        0.002081066370010376,
        0.20668822526931763
      ],
      "type": "VEC2"
    },
    {
      "bufferView": 1,
      "byteOffset": 3669792,
      "componentType": 5126,
      "count": 65532,
      "max": [
        0.9977611899375916,
        0.9915260672569275
      ],
      "min": [
        0.002081066370010376,
        0.20668822526931763
      ],
      "type": "VEC2"
    },
    {
      "bufferView": 1,
      "byteOffset": 4194048,
      "componentType": 5126,
      "count": 65532,
      "max": [
        0.9977611899375916,
        0.9915260672569275
      ],
      "min": [
        0.002081066370010376,
        0.20668822526931763
      ],
      "type": "VEC2"
    },
    {
      "bufferView": 1,
      "byteOffset": 4718304,
      "componentType": 5126,
      "count": 65532,
      "max": [
        0.9977611899375916,
        0.9915260672569275
      ],
      "min": [
        0.002081066370010376,
        0.20668822526931763
      ],
      "type": "VEC2"
    },
    {
      "bufferView": 0,
      "componentType": 5125,
      "count": 333711,
      "type": "SCALAR"
    },
    {
      "bufferView": 2,
      "byteOffset": 1572768,
      "componentType": 5126,
      "count": 58672,
      "max": [
        0.1125105693936348,
        0.08969613909721375,
        0.11347128450870514
      ],
      "min": [
        -0.11125919222831726,
        0.016460098326206207,
        -0.11112582683563232
      ],
      "type": "VEC3"
    },
    {
      "bufferView": 2,
      "byteOffset": 2276832,
      "componentType": 5126,
      "count": 58672,
      "max": [
        0.9998806715011597,
        0.999986469745636,
        0.999913215637207
      ],
      "min": [
        -0.9998209476470947,
        -0.8008809089660645,
        -0.9999257922172546
      ],
      "type": "VEC3"
    },
    {
      "bufferView": 1,
      "byteOffset": 5242560,
      "componentType": 5126,
      "count": 58672,
      "max": [
        0.991317629814148,
        0.9916732311248779
      ],
      "min": [
        0.002078854478895664,
        0.40275514125823975
      ],
      "type": "VEC2"
    },
    {
      "bufferView": 1,
      "byteOffset": 5711936,
      "componentType": 5126,
      "count": 58672,
      "max": [
        0.991317629814148,
        0.9916732311248779
      ],
      "min": [
        0.002078854478895664,
        0.40275514125823975
      ],
      "type": "VEC2"
    },
    {
      "bufferView": 1,
      "byteOffset": 6181312,
      "componentType": 5126,
      "count": 58672,
      "max": [
        0.991317629814148,
        0.9916732311248779
      ],
      "min": [
        0.002078854478895664,
        0.40275514125823975
      ],
      "type": "VEC2"
    },
    {
      "bufferView": 1,
      "byteOffset": 6650688,
      "componentType": 5126,
      "count": 58672,
      "max": [
        0.991317629814148,
        0.9916732311248779
      ],
      "min": [
        0.002078854478895664,
        0.40275514125823975
      ],
      "type": "VEC2"
    },
    {
      "bufferView": 1,
      "byteOffset": 7120064,
      "componentType": 5126,
      "count": 58672,
      "max": [
        0.991317629814148,
        0.9916732311248779
      ],
      "min": [
        0.002078854478895664,
        0.40275514125823975
      ],
      "type": "VEC2"
    },
    {
      "bufferView": 1,
      "byteOffset": 7589440,
      "componentType": 5126,
      "count": 58672,
      "max": [
        0.991317629814148,
        0.9916732311248779
      ],
      "min": [
        0.002078854478895664,
        0.40275514125823975
      ],
      "type": "VEC2"
    },
    {
      "bufferView": 1,
      "byteOffset": 8058816,
      "componentType": 5126,
      "count": 58672,
      "max": [
        0.991317629814148,
        0.9916732311248779
      ],
      "min": [
        0.002078854478895664,
        0.40275514125823975
      ],
      "type": "VEC2"
    },
    {
      "bufferView": 1,
      "byteOffset": 8528192,
      "componentType": 5126,
      "count": 58672,
      "max": [
        0.991317629814148,
        0.9916732311248779
      ],
      "min": [
        0.002078854478895664,
        0.40275514125823975
      ],
      "type": "VEC2"
    },
    {
      "bufferView": 1,
      "byteOffset": 8997568,
      "componentType": 5126,
      "count": 58672,
      "max": [
        0.991317629814148,
        0.9916732311248779
      ],
      "min": [
        0.002078854478895664,
        0.40275514125823975
      ],
      "type": "VEC2"
    },
    {
      "bufferView": 1,
      "byteOffset": 9466944,
      "componentType": 5126,
      "count": 58672,
      "max": [
        0.991317629814148,
        0.9916732311248779
      ],
      "min": [
        0.002078854478895664,
        0.40275514125823975
      ],
      "type": "VEC2"
    },
    {
      "bufferView": 0,
      "byteOffset": 1334844,
      "componentType": 5125,
      "count": 319935,
      "type": "SCALAR"
    }
  ],
  "asset": {
    "extras": {
      "author": "JFN (https://sketchfab.com/db4)",
      "license": "CC-BY-4.0 (http://creativecommons.org/licenses/by/4.0/)",
      "source": "https://sketchfab.com/3d-models/noodles-with-soybean-paste-scaniverse-lidar-a1fd5cd41faf467fa9ffd42ee297e6f5",
      "title": "Noodles with Soybean Paste (Scaniverse LIDAR)"
    },
    "generator": "Sketchfab-14.38.0",
    "version": "2.0"
  },
  "bufferViews": [
    {
      "buffer": 0,
      "byteLength": 2614584,
      "name": "floatBufferViews",
      "target": 34963
    },
    {
      "buffer": 0,
      "byteLength": 9936320,
      "byteOffset": 2614584,
      "byteStride": 8,
      "name": "floatBufferViews",
      "target": 34962
    },
    {
      "buffer": 0,
      "byteLength": 2980896,
      "byteOffset": 12550904,
      "byteStride": 12,
      "name": "floatBufferViews",
      "target": 34962
    }
  ],
  "buffers": [
    {
      "byteLength": 15531800,
      "uri": "scene.bin"
    }
  ],
  "extensionsUsed": [
    "KHR_materials_unlit"
  ],
  "images": [
    {
      "uri": "textures/main_baseColor.jpeg"
    }
  ],
  "materials": [
    {
      "doubleSided": true,
      "extensions": {
        "KHR_materials_unlit": {}
      },
      "name": "main",
      "pbrMetallicRoughness": {
        "baseColorTexture": {
          "index": 0
        },
        "metallicFactor": 0.0
      }
    }
  ],
  "meshes": [
    {
      "name": "mesh_main_0",
      "primitives": [
        {
          "attributes": {
            "NORMAL": 1,
            "POSITION": 0,
            "TEXCOORD_0": 2,
            "TEXCOORD_1": 3,
            "TEXCOORD_2": 4,
            "TEXCOORD_3": 5,
            "TEXCOORD_4": 6,
            "TEXCOORD_5": 7,
            "TEXCOORD_6": 8,
            "TEXCOORD_7": 9,
            "TEXCOORD_8": 10,
            "TEXCOORD_9": 11
          },
          "indices": 12,
          "material": 0,
          "mode": 4
        }
      ]
    },
    {
      "name": "mesh_main_0",
      "primitives": [
        {
          "attributes": {
            "NORMAL": 14,
            "POSITION": 13,
            "TEXCOORD_0": 15,
            "TEXCOORD_1": 16,
            "TEXCOORD_2": 17,
            "TEXCOORD_3": 18,
            "TEXCOORD_4": 19,
            "TEXCOORD_5": 20,
            "TEXCOORD_6": 21,
            "TEXCOORD_7": 22,
            "TEXCOORD_8": 23,
            "TEXCOORD_9": 24
          },
          "indices": 25,
          "material": 0,
          "mode": 4
        }
      ]
    }
  ],
  "nodes": [
    {
      "children": [
        1
      ],
      "matrix": [
        1.0,
        0.0,
        0.0,
        0.0,
        0.0,
        2.220446049250313e-16,
        -1.0,
        0.0,
        0.0,
        1.0,
        2.220446049250313e-16,
        0.0,
        0.0,
        0.0,
        0.0,
        1.0
      ],
      "name": "Sketchfab_model"
    },
    {
      "children": [
        2
      ],
      "matrix": [
        1.0,
        0.0,
        0.0,
        0.0,
        0.0,
        0.0,
        1.0,
        0.0,
        0.0,
        -1.0,
        0.0,
        0.0,
        0.0,
        0.0,
        0.0,
        1.0
      ],
      "name": "7c963fe486fd415880dd1a5dbde8f32d.fbx"
    },
    {
      "children": [
        3
      ],
      "name": "RootNode"
    },
    {
      "children": [
        4,
        5
      ],
      "name": "mesh"
    },
    {
      "mesh": 0,
      "name": "mesh_main_0"
    },
    {
      "mesh": 1,
      "name": "mesh_main_0"
    }
  ],
  "samplers": [
    {
      "magFilter": 9729,
      "minFilter": 9987,
      "wrapS": 10497,
      "wrapT": 10497
    }
  ],
  "scene": 0,
  "scenes": [
    {
      "name": "Sketchfab_Scene",
      "nodes": [
        0
      ]
    }
  ],
  "textures": [
    {
      "sampler": 0,
      "source": 0
    }
  ]
}
